<svg width="62" height="62" viewBox="0 0 62 62" fill="none" xmlns="http://www.w3.org/2000/svg">
<g filter="url(#filter0_d_1_360)">
<rect x="13" y="13" width="30" height="30" rx="1" fill="#DCAC00"/>
</g>
<path d="M27.9221 29.867L25.5276 27.4724C25.518 27.4629 25.5105 27.4516 25.5053 27.4392C25.5002 27.4268 25.4975 27.4135 25.4975 27.4C25.4975 27.3865 25.5002 27.3732 25.5053 27.3608C25.5105 27.3484 25.518 27.3371 25.5276 27.3276C25.5371 27.318 25.5484 27.3105 25.5608 27.3053C25.5732 27.3002 25.5865 27.2975 25.6 27.2975C25.6135 27.2975 25.6268 27.3002 25.6392 27.3053C25.6515 27.3104 25.6627 27.3179 25.6722 27.3273C25.6723 27.3274 25.6724 27.3275 25.6724 27.3276L27.0457 28.7068L27.9 29.5648V28.354V22.6C27.9 22.5735 27.9105 22.548 27.9293 22.5293C27.948 22.5105 27.9735 22.5 28 22.5C28.0265 22.5 28.052 22.5105 28.0707 22.5293C28.0895 22.548 28.1 22.5735 28.1 22.6V28.354V29.5648L28.9543 28.7068L30.3276 27.3276C30.3276 27.3275 30.3277 27.3274 30.3278 27.3273C30.347 27.3082 30.3729 27.2975 30.4 27.2975C30.4272 27.2975 30.4532 27.3083 30.4724 27.3276C30.4917 27.3468 30.5025 27.3728 30.5025 27.4C30.5025 27.4272 30.4917 27.4532 30.4724 27.4724L28.0779 29.867C28.0689 29.875 28.0585 29.8814 28.0472 29.8858L28.0365 29.89L28.0259 29.8947C28.0177 29.8983 28.0089 29.9001 28 29.9001C27.9911 29.9001 27.9823 29.8983 27.9741 29.8947L27.9635 29.89L27.9528 29.8858C27.9415 29.8814 27.9311 29.875 27.9221 29.867ZM33.3293 29.7293C33.348 29.7105 33.3735 29.7 33.4 29.7C33.4265 29.7 33.452 29.7105 33.4707 29.7293C33.4895 29.748 33.5 29.7735 33.5 29.8V32.2C33.5 32.5448 33.363 32.8754 33.1192 33.1192C32.8754 33.363 32.5448 33.5 32.2 33.5H23.8C23.4552 33.5 23.1246 33.363 22.8808 33.1192C22.637 32.8754 22.5 32.5448 22.5 32.2V29.8C22.5 29.7735 22.5105 29.748 22.5293 29.7293C22.548 29.7105 22.5735 29.7 22.6 29.7C22.6265 29.7 22.652 29.7105 22.6707 29.7293C22.6895 29.748 22.7 29.7735 22.7 29.8V32.2C22.7 32.4917 22.8159 32.7715 23.0222 32.9778C23.2285 33.1841 23.5083 33.3 23.8 33.3H32.2C32.4917 33.3 32.7715 33.1841 32.9778 32.9778C33.1841 32.7715 33.3 32.4917 33.3 32.2V29.8C33.3 29.7735 33.3105 29.748 33.3293 29.7293Z" fill="#DCAC00" stroke="white"/>
<defs>
<filter id="filter0_d_1_360" x="0" y="0" width="62" height="62" filterUnits="userSpaceOnUse" color-interpolation-filters="sRGB">
<feFlood flood-opacity="0" result="BackgroundImageFix"/>
<feColorMatrix in="SourceAlpha" type="matrix" values="0 0 0 0 0 0 0 0 0 0 0 0 0 0 0 0 0 0 127 0" result="hardAlpha"/>
<feOffset dx="3" dy="3"/>
<feGaussianBlur stdDeviation="8"/>
<feColorMatrix type="matrix" values="0 0 0 0 0 0 0 0 0 0 0 0 0 0 0 0 0 0 0.2 0"/>
<feBlend mode="normal" in2="BackgroundImageFix" result="effect1_dropShadow_1_360"/>
<feBlend mode="normal" in="SourceGraphic" in2="effect1_dropShadow_1_360" result="shape"/>
</filter>
</defs>
</svg>
