<svg width="64" height="64" viewBox="0 0 64 64" fill="none" xmlns="http://www.w3.org/2000/svg">
<rect width="64" height="64" rx="32" fill="#004A91"/>
<path d="M37.6108 35.6623C37.6108 37.4555 37.6386 39.2493 37.6004 41.0418C37.5778 42.1195 36.784 42.7962 35.6552 42.7975C32.4001 42.8009 29.1441 42.8009 25.8872 42.7975C24.9738 42.7975 24.0604 42.8014 23.147 42.7975C21.9483 42.7917 21.1953 42.0367 21.1953 40.8432C21.1953 36.2223 21.1953 31.6016 21.1953 26.981V26.6363C21.3331 26.6298 21.4463 26.6188 21.5602 26.6188C22.5809 26.6188 23.6017 26.6188 24.6225 26.6188C25.862 26.6123 26.6085 25.8619 26.6104 24.6283C26.6104 23.5021 26.6104 22.3758 26.6104 21.227C26.7262 21.2173 26.8187 21.203 26.9106 21.203C29.8358 21.1996 32.7587 21.1991 35.6792 21.2017C36.7562 21.2017 37.526 21.8842 37.6004 22.8836C37.6121 22.978 37.5976 23.0738 37.5584 23.1605C37.1056 23.9885 36.6307 24.803 36.1921 25.6375C34.6448 28.5821 33.1067 31.5317 31.5779 34.4863C31.4185 34.8002 31.3235 35.1429 31.2984 35.4941C31.2189 36.6624 31.1846 37.8339 31.1361 39.0035C31.1128 39.5702 31.3347 40.0172 31.8431 40.2779C32.338 40.5321 32.8219 40.4622 33.2663 40.1271C34.2502 39.3806 35.2386 38.6393 36.2116 37.8785C36.399 37.7185 36.5538 37.5239 36.6676 37.3054C36.9762 36.7568 37.2576 36.1927 37.5493 35.6345L37.6108 35.6623ZM28.0336 29.2988C26.8843 29.2988 25.735 29.2988 24.5857 29.2988C24.1024 29.2988 23.9 29.4282 23.9038 29.74C23.9077 30.0518 24.1076 30.1715 24.5967 30.1715H31.4601C31.5683 30.1751 31.6765 30.169 31.7836 30.1534C32.0171 30.1126 32.1478 29.9593 32.1459 29.7284C32.1439 29.4974 32.0003 29.3532 31.7732 29.3092C31.6774 29.297 31.5806 29.2935 31.4841 29.2988C30.3326 29.2984 29.1825 29.2984 28.0336 29.2988ZM27.0322 33.2947C27.89 33.2947 28.7477 33.2947 29.6062 33.2947C29.9775 33.2947 30.1638 33.1504 30.1664 32.871C30.169 32.5915 29.9839 32.4401 29.612 32.4401C27.896 32.4376 26.18 32.4376 24.464 32.4401C24.0895 32.4401 23.9045 32.587 23.9032 32.8658C23.9019 33.1446 24.0895 33.2947 24.4582 33.2953C25.316 33.2947 26.1738 33.2947 27.0322 33.2947ZM26.8925 38.7053C26.0767 38.7053 25.2617 38.7053 24.4459 38.7053C24.0934 38.7053 23.9135 38.8456 23.9032 39.1147C23.8928 39.3955 24.0824 39.5579 24.4446 39.5585C26.0541 39.5611 27.6636 39.5611 29.273 39.5585C29.6392 39.5585 29.8352 39.4039 29.8352 39.1316C29.8352 38.8592 29.6359 38.7053 29.2743 38.7046C28.4799 38.7007 27.6862 38.702 26.8925 38.702V38.7053ZM26.3704 36.4412C27.0173 36.4412 27.6597 36.4412 28.304 36.4412C28.6721 36.4412 28.8661 36.2891 28.8719 36.0136C28.8778 35.738 28.6843 35.5698 28.3221 35.5691C27.0335 35.5653 25.7445 35.5653 24.455 35.5691C24.0927 35.5691 23.8987 35.7335 23.9038 36.0116C23.909 36.2898 24.1044 36.4392 24.4692 36.4412C25.1032 36.4399 25.7352 36.4379 26.3704 36.4379V36.4412Z" fill="white"/>
<path d="M36.4314 27.0341L40.0663 28.934C38.7247 31.5034 37.3914 34.0554 36.0433 36.6365L32.4065 34.7379C33.7475 32.1717 35.0807 29.6184 36.4314 27.0341Z" fill="white"/>
<path d="M40.4715 28.159L36.823 26.252C37.2758 25.422 37.664 24.5843 38.1634 23.8178C38.6983 22.9969 39.8453 22.7827 40.7257 23.2356C41.1535 23.4587 41.4888 23.8257 41.6725 24.2718C41.8561 24.718 41.8764 25.2147 41.7297 25.6743C41.6769 25.8264 41.612 25.9739 41.5356 26.1155C41.1921 26.7896 40.8363 27.461 40.4715 28.159Z" fill="white"/>
<path d="M25.7415 21.6112C25.7415 22.663 25.759 23.766 25.7337 24.867C25.7317 25.0919 25.6433 25.3074 25.4868 25.4689C25.3302 25.6304 25.1175 25.7255 24.8928 25.7344C23.7801 25.7564 22.6668 25.7416 21.613 25.7416L25.7415 21.6112Z" fill="white"/>
<path d="M32.1494 35.5711L35.5132 37.3274C34.8094 37.8643 34.1385 38.3773 33.4671 38.8903C33.22 39.0785 32.9845 39.2881 32.718 39.444C32.5886 39.519 32.3674 39.554 32.2477 39.4919C32.128 39.4298 32.0122 39.2221 32.0154 39.0817C32.042 37.9348 32.0982 36.7879 32.1494 35.5711Z" fill="white"/>
</svg>
