<svg width="17" height="17" viewBox="0 0 17 17" fill="none" xmlns="http://www.w3.org/2000/svg">
<g id="Frame" clip-path="url(#clip0_1_190)">
<g id="409rvg.tif">
<path id="Vector" d="M7.00508 0H7.9697C8.01693 0.0127057 8.06493 0.0223717 8.1134 0.0289387C8.93067 0.0931361 9.72199 0.275417 10.4624 0.623347C13.1464 1.88434 14.6642 3.98789 14.9443 6.94895C15.0727 8.30674 14.8019 9.60433 14.1792 10.8158C13.9181 11.3244 13.5871 11.7967 13.2695 12.3153C13.3117 12.3449 13.3519 12.3775 13.3896 12.4127C14.4739 13.4951 15.5564 14.579 16.637 15.6645C16.7804 15.8095 16.8795 15.9988 16.9989 16.1674V16.4668C16.987 16.4769 16.9766 16.4888 16.9683 16.5021C16.7435 17.0512 16.1936 17.1673 15.7709 16.7479C14.7951 15.7755 13.8211 14.8014 12.8487 13.8257C12.6578 13.6335 12.4698 13.4382 12.2739 13.2386L12.1199 13.356C10.3437 14.7182 8.35123 15.2307 6.1449 14.8422C2.73778 14.2428 0.166228 11.3041 0.00822914 7.84505C-0.0582967 6.34822 0.277326 4.9432 1.059 3.66258C2.22853 1.7483 3.91795 0.565469 6.12295 0.130723C6.41433 0.0731784 6.71104 0.0429091 7.00508 0ZM13.5848 7.48016C13.5752 4.11096 10.824 1.36544 7.47641 1.38606C4.10289 1.40669 1.3933 4.11861 1.38631 7.48182C1.37899 10.8377 4.12451 13.5856 7.48673 13.5846C10.8489 13.5836 13.5941 10.8344 13.5848 7.48016Z" fill="#004A91"/>
</g>
</g>
<defs>
<clipPath id="clip0_1_190">
<rect width="16.998" height="17" fill="white"/>
</clipPath>
</defs>
</svg>
